Coordinates
version=1
nRows=11
nColumns=36
inDegrees=yes

Units are S.I. units (second, meters, Newtons, ...)
If the header above contains a line with 'inDegrees', this indicates whether rotational values are in degrees (yes) or radians (no).

endheader
time	pelvis_tilt	pelvis_list	pelvis_rotation	pelvis_tx	pelvis_ty	pelvis_tz	hip_flexion_r	hip_adduction_r	hip_rotation_r	knee_angle_r	knee_angle_r_beta	ankle_angle_r	subtalar_angle_r	mtp_angle_r	hip_flexion_l	hip_adduction_l	hip_rotation_l	knee_angle_l	knee_angle_l_beta	ankle_angle_l	subtalar_angle_l	mtp_angle_l	lumbar_extension	lumbar_bending	lumbar_rotation	arm_flex_r	arm_add_r	arm_rot_r	elbow_flex_r	pro_sup_r	arm_flex_l	arm_add_l	arm_rot_l	elbow_flex_l	pro_sup_l
      1.16250000	    -31.47129683	     -2.88116641	     -4.33335428	      0.13621972	      0.53295329	     -0.07747876	    103.53258591	     -4.70419913	      3.38147211	    112.24361173	      1.95902059	     25.66301454	    -21.78778643	     -7.49999987	    100.65466340	      4.05124160	     13.20971609	    117.09732585	      2.04373388	     28.99527375	    -31.28918831	     -7.49999987	    -27.70663828	      2.22753097	     -1.16494367	     38.78190529	    -27.33787140	      2.79195406	     62.03758528	     82.91944339	     45.88611313	      0.02197317	     14.41261354	    106.06946700	     62.67494816
      1.16666670	    -31.51107407	     -3.23566351	     -4.75059229	      0.14090933	      0.53299004	     -0.07198046	    102.85613426	     -4.25848514	      2.65671166	    111.37988423	      1.94394570	     25.23168033	    -22.47641482	     -7.49999987	    100.02260843	      3.75120866	     13.87472852	    116.55363372	      2.03424466	     28.86046195	    -31.66640207	     -7.49999987	    -27.50104281	      2.74289398	     -0.39883406	     38.87153976	    -28.55662521	      2.67756491	     62.14652575	     83.07007737	     47.89981744	     -2.78872610	     16.55295727	    105.28757991	     62.31560113
      1.17083330	    -31.59739793	     -3.61267943	     -4.86429350	      0.14124810	      0.54357373	     -0.07294856	    101.69687309	     -4.01313519	      1.87161203	    110.05178571	      1.92076601	     24.50145067	    -23.13357891	     -7.49999987	     99.22742900	      3.67861322	     14.42754906	    115.52902788	      2.01636192	     28.43835207	    -31.92138587	     -7.49999987	    -27.74365261	      2.92564659	      0.11535067	     38.45450896	    -29.67908520	      2.09835784	     62.76831765	     79.87772026	     49.30388835	     -3.95650831	     18.47412940	    104.02612335	     61.84905533
      1.17500000	    -31.63327080	     -3.81247664	     -5.19877529	      0.14188736	      0.54639659	     -0.07247405	    100.77830738	     -3.76902749	      1.26584007	    109.13646712	      1.90479069	     24.89972267	    -23.24203179	     -7.49999987	     98.62502498	      3.43387091	     15.03203148	    114.89344735	      2.00526895	     28.37971445	    -32.00932021	     -7.49999987	    -27.75960412	      2.97374690	      0.17150636	     37.85992594	    -30.50442026	      1.65006600	     63.42693659	     78.06062454	     50.08164196	     -5.74391220	     20.26371574	    104.43205904	     61.75323524
      1.17916670	    -31.44933308	     -4.19132014	     -5.25834872	      0.14550620	      0.54945184	     -0.07670225	     99.76838909	     -3.84269428	      0.78686194	    108.85863900	      1.89994167	     24.89404097	    -23.24903996	     -7.49999987	     98.02786083	      3.73664899	     15.55909069	    114.70134082	      2.00191605	     28.15855943	    -32.14032304	     -7.49999987	    -27.82555240	      3.68855332	     -0.18162345	     37.77538234	    -30.84824585	      1.04504462	     63.72682249	     78.47324816	     49.66482582	     -6.78201949	     20.96702476	    104.92296553	     61.85822573
      1.18333330	    -31.26509651	     -4.45461817	     -4.92384859	      0.14559547	      0.54992209	     -0.07689969	     98.97273714	     -4.05029467	      0.98587029	    108.79533157	      1.89883675	     25.34439276	    -22.76696002	     -7.49999987	     97.40925868	      4.08407963	     15.83898669	    114.19961490	      1.99315928	     28.27435654	    -32.32609680	     -7.49999987	    -27.74311678	      3.89481728	     -0.48555349	     37.24640666	    -31.55932224	      0.38848141	     63.73923795	     78.01678233	     49.03515544	     -6.23804204	     21.99508133	    104.89546363	     62.05060209
      1.18750000	    -30.76871046	     -4.87744021	     -4.62595599	      0.14914381	      0.55728711	     -0.07319415	     97.67394067	     -4.09083229	      0.66989550	    108.37210917	      1.89145012	     25.47044907	    -22.75536206	     -7.49999987	     96.26444891	      4.33781422	     16.31314678	    113.68378031	      1.98415627	     28.00588031	    -32.55563813	     -7.49999987	    -27.98233407	      4.09033914	     -0.93235786	     36.77249186	    -31.80500595	     -0.47813594	     63.83159640	     78.58162556	     47.48853589	     -4.81464939	     21.16031063	    104.80315887	     62.19100493
      1.19166670	    -30.44040355	     -4.80364670	     -4.65769704	      0.14453511	      0.55716038	     -0.07717685	     97.32170497	     -4.23963693	      0.88371251	    108.13000225	      1.88722456	     25.20875353	    -22.18000528	     -7.49999987	     95.79477163	      4.66540468	     16.40317639	    113.43598655	      1.97983146	     27.93600010	    -32.73251982	     -7.49999987	    -28.02392837	      3.83410177	     -1.48665991	     36.97793200	    -32.06689612	     -0.91935493	     64.31396696	     78.95566409	     45.60525561	     -2.35839559	     19.64365081	    104.97495462	     62.22903957
      1.19583330	    -29.88796470	     -4.86701189	     -4.42622152	      0.14840464	      0.56173144	     -0.07379166	     96.51488600	     -4.32000007	      0.98755280	    107.96117436	      1.88427796	     25.05674453	    -21.84004000	     -7.49999987	     94.54895538	      4.90482187	     16.58810468	    112.86478492	      1.96986211	     28.02384985	    -33.00550805	     -7.49999987	    -28.19541001	      4.21613235	     -2.40041440	     36.64989267	    -32.00832489	     -1.27595788	     65.95160307	     79.30194468	     43.29985933	     -0.36508953	     17.37347337	    105.47710399	     62.19760226
      1.20000000	    -30.28611729	     -5.10751295	     -4.45901745	      0.14867971	      0.56488298	     -0.07323424	     96.14944486	     -4.00703386	      0.57434527	    107.12822325	      1.86974022	     24.70337836	    -22.36566487	     -7.49999987	     94.47447479	      4.83198574	     17.01003853	    112.19966368	      1.95825355	     27.89704618	    -33.01683627	     -7.49999987	    -27.77962287	      4.41962570	     -2.99713493	     35.93079679	    -32.39042720	     -1.50262101	     68.21706611	     78.02063986	     41.85564382	      0.80108979	     16.13550768	    106.65138322	     62.10947599
      1.20416670	    -30.38381223	     -5.38053774	     -4.80299546	      0.14782056	      0.56488860	     -0.07347300	     95.97701636	     -3.64096288	      0.13673213	    106.74657520	      1.86307920	     24.74026547	    -22.35673835	     -7.49999987	     94.37655205	      4.61599175	     17.55039011	    112.05108359	      1.95566034	     27.82533280	    -33.06329349	     -7.49999987	    -27.35841758	      4.77055572	     -3.67131793	     36.18149996	    -32.58103516	     -0.54061890	     69.60900532	     80.83817258	     41.86437517	      0.26121886	     15.45099126	    107.42888466	     61.98693271
